<?xml version="1.0" encoding="UTF-8" standalone="no"?>
<svg
   width="120"
   height="120"
   viewBox="0 0 120 120"
   fill="none"
   version="1.1"
   id="svg12"
   sodipodi:docname="favicon.svg"
   inkscape:version="1.2.2 (b0a8486541, 2022-12-01)"
   xmlns:inkscape="http://www.inkscape.org/namespaces/inkscape"
   xmlns:sodipodi="http://sodipodi.sourceforge.net/DTD/sodipodi-0.dtd"
   xmlns="http://www.w3.org/2000/svg"
   xmlns:svg="http://www.w3.org/2000/svg">
  <defs
     id="defs16" />
  <sodipodi:namedview
     id="namedview14"
     pagecolor="#505050"
     bordercolor="#eeeeee"
     borderopacity="1"
     inkscape:showpageshadow="0"
     inkscape:pageopacity="0"
     inkscape:pagecheckerboard="0"
     inkscape:deskcolor="#505050"
     showgrid="false"
     inkscape:zoom="4.5408762"
     inkscape:cx="69.369872"
     inkscape:cy="51.091461"
     inkscape:window-width="1850"
     inkscape:window-height="1131"
     inkscape:window-x="0"
     inkscape:window-y="0"
     inkscape:window-maximized="1"
     inkscape:current-layer="svg12" />
  <path
     id="path1267"
     style="fill:#ffffff;fill-opacity:1"
     sodipodi:type="inkscape:offset"
     inkscape:radius="-11.436255"
     inkscape:original="M 17.230469 27.230469 L 17.230469 73.673828 C 17.183519 84.329393 20.958381 94.945001 27.742188 103.16406 C 31.315984 107.52314 35.688578 111.22497 40.576172 114.0332 C 40.92201 114.2277 41.531769 114.57512 41.957031 114.79102 C 53.693888 121.07857 68.168959 121.88348 80.556641 117.02734 C 92.030263 112.61406 101.55403 103.43105 106.38086 92.125 C 111.7937 79.712607 111.38261 64.923356 105.25 52.845703 C 104.95819 52.260055 104.6446 51.674886 104.38477 51.205078 C 104.07071 50.627491 103.87445 50.306198 103.52539 49.714844 C 97.383802 39.451171 87.130339 31.739787 75.542969 28.75 C 70.899422 27.49708 66.068843 27.12219 61.273438 27.230469 L 17.230469 27.230469 z "
     d="m 61.53125,38.664062 a 11.437399,11.437399 0 0 1 -0.257812,0.002 H 28.666016 v 35.007812 a 11.437399,11.437399 0 0 1 0,0.05078 c -0.0349,7.921224 2.864196,16.063186 7.896484,22.160157 a 11.437399,11.437399 0 0 1 0.02344,0.0293 c 2.683757,3.27347 6.002585,6.082838 9.675781,8.195318 0.399837,0.22348 0.924197,0.51034 0.873047,0.48437 a 11.437399,11.437399 0 0 1 0.222656,0.11719 c 8.644883,4.63115 19.855871,5.2645 29.02539,1.66992 a 11.437399,11.437399 0 0 1 0.06836,-0.0273 c 8.491507,-3.26623 15.84017,-10.352077 19.412109,-18.718754 a 11.437399,11.437399 0 0 1 0.03516,-0.08203 C 99.895986,78.3858 99.572467,66.924667 95.052734,58.023438 a 11.437399,11.437399 0 0 1 -0.03906,-0.07813 c -0.189399,-0.380114 -0.43728,-0.844464 -0.636719,-1.205078 a 11.437399,11.437399 0 0 1 -0.03906,-0.07227 C 94.12875,56.283338 94.058919,56.17312 93.677734,55.527344 l 0.0332,0.06055 C 89.153149,47.971026 81.246934,42.033238 72.685547,39.824219 a 11.437399,11.437399 0 0 1 -0.121094,-0.0332 C 69.29287,38.908278 65.557794,38.573144 61.53125,38.664062 Z"
     transform="translate(-3.69995,-13.7)" />
  <path
     d="m 59.99995,11.53 c 26.8019,0 48.4701,21.6682 48.4701,48.4701 0,26.8019 -21.6682,48.4699 -48.4701,48.4699 -26.8019,0 -48.47,-21.668 -48.47,-48.4699 V 11.53 Z"
     fill="#f0047f"
     id="path4" />
  <circle
     style="fill:#ffffff;fill-opacity:1;stroke:#000000;stroke-width:0;stroke-linecap:round;stroke-linejoin:round"
     id="path1327"
     cx="60"
     cy="60"
     r="29.729259" />
  <circle
     style="fill:#f0047f;fill-opacity:1;stroke:#000000;stroke-width:0;stroke-linecap:round;stroke-linejoin:round"
     id="path1389"
     cx="60"
     cy="60"
     r="13.085176" />
  <rect
     style="fill:#f0047f;fill-opacity:1;stroke:#000000;stroke-width:0;stroke-linecap:round;stroke-linejoin:round"
     id="rect1381"
     width="17.235886"
     height="35.526398"
     x="-68.617943"
     y="60"
     transform="rotate(-90)" />
</svg>
